<?xml version="1.0" encoding="UTF-8"?>
<svg xmlns="http://www.w3.org/2000/svg" version="1.1" viewBox="0 0 1920 1080">
  <defs>
    <style>
      .cls-1 {
        fill: #9aadce;
      }

      .cls-2 {
        fill: #5f679c;
      }

      .cls-3 {
        fill: #8b9bc1;
      }

      .cls-4 {
        fill: #b8cfe6;
      }

      .cls-5 {
        fill: #6e79a9;
      }

      .cls-6 {
        fill: #d6f2ff;
      }

      .cls-7 {
        fill: #505690;
      }

      .cls-8 {
        fill: #fffa72;
      }

      .cls-9 {
        fill: #a9beda;
      }

      .cls-10 {
        fill: #c7e1f3;
      }

      .cls-11 {
        fill: #7d8ab5;
      }

      .cls-12 {
        fill: #323377;
      }

      .cls-13 {
        fill: #414584;
      }
    </style>
  </defs>
  <!-- Generator: Adobe Illustrator 28.6.0, SVG Export Plug-In . SVG Version: 1.2.0 Build 709)  -->
  <g>
    <g id="Layer_1">
      <g id="Layer_1-2" data-name="Layer_1">
        <g id="Layer_1-2">
          <path class="cls-8" d="M974.3,62.3c-28.7,61.7-23.3,100.4,16.3,116.1,59.3,23.5,200.3,32.9,259.3,83.9s238.7,11.6,269.4-75.9,86.1-222.4-205.8-222.4S1005.8-3.3,974.3,62.3h0Z"/>
          <path class="cls-6" d="M552,184.1c19.4,172.8,97.2,281.2,233.2,325.1,204.1,65.8,614.2,92.2,861.7,234.9,247.5,142.8,687.1,32.4,631.6-212.7-55.4-245.1-118.5-622.8-935.7-622.8S534.5.5,552,184.1h0Z"/>
          <path class="cls-10" d="M583.7,174c9.1,163.6,76.9,266.1,203.3,307.6,189.6,62.3,576.3,87.2,802.9,222.4,226.6,135.1,648.5,30.7,609.2-201.3-39.3-231.9-78.7-589.4-852.1-589.4S576.9.2,583.7,174h0Z"/>
          <path class="cls-4" d="M616.2,163.8c.2,154.3,58.9,251.1,176,290.2,175.7,58.8,539.2,82.3,746.1,209.8,206.8,127.5,610.2,28.9,585.1-189.9-25.2-218.8-44.1-556.1-773.7-556.1S618.7-.1,616.2,163.8h0Z"/>
          <path class="cls-9" d="M649.4,153.7c-7.3,145.1,43.1,236,151.3,272.8,162.3,55.2,502.9,77.3,691,197.2,188.2,119.8,572.2,27.2,559.2-178.5-13-205.7-14.2-522.7-700.1-522.7S659.8-.4,649.4,153.7h0Z"/>
          <path class="cls-1" d="M683.3,143.5c-13.7,135.8,29.2,220.9,128.8,255.4,149.3,51.7,467.1,72.4,637.6,184.6s534.4,25.5,531.9-167.1c-2.5-192.5,11.3-489.3-630.8-489.3S700.2-.8,683.3,143.5h0Z"/>
          <path class="cls-3" d="M717.8,133.4c-18.9,126.5,17.2,205.9,108.4,238,136.8,48.2,432,67.5,585.8,172,153.8,104.5,496.8,23.7,503.3-155.7,6.4-179.4,32.7-456-565.6-456S740.1-1.1,717.8,133.4h0Z"/>
          <path class="cls-11" d="M752.9,123.2c-23.1,117.3,6.9,190.8,90,220.6,124.7,44.7,397.4,62.5,535.4,159.4,138,96.9,459.4,22,473.3-144.3,13.8-166.3,50.3-422.6-504.2-422.6S779.5-1.4,752.9,123.2h0Z"/>
          <path class="cls-5" d="M788.5,113.1c-26.3,108-1.8,175.7,73.5,203.2,112.9,41.1,363.4,57.6,486.3,146.8,122.9,89.2,422.2,20.3,442.1-132.9,19.8-153.2,64.4-389.2-446.4-389.2S818.4-1.7,788.5,113.1h0Z"/>
          <path class="cls-2" d="M824.7,102.9c-28.5,98.8-8.9,160.7,58.8,185.8,101.5,37.6,329.8,52.7,438.6,134.2,108.7,81.6,385.2,18.5,409.7-121.5s75-355.9-392-355.9S856.7-2,824.7,102.9h0Z"/>
          <path class="cls-7" d="M861.4,92.7c-29.8,89.5-14.6,145.6,45.8,168.3,90.5,34.1,296.8,47.7,392,121.7,95.2,73.9,348.3,16.8,376.2-110.1s82.4-322.5-340.8-322.5S894.7-2.4,861.4,92.7h0Z"/>
          <path class="cls-13" d="M898.5,82.6c-30.3,80.2-18.8,130.5,34.4,150.9,79.8,30.6,264.2,42.8,346.6,109.1s311.6,15,341.6-98.7c30-113.8,86.6-289.1-292.8-289.1S932.1-2.7,898.5,82.6h0Z"/>
          <path class="cls-12" d="M936.2,72.4c-29.9,71-21.7,115.5,24.5,133.5,69.4,27,232.1,37.8,302.4,96.5,70.4,58.6,275.1,13.3,306-87.3,31-100.7,87.8-255.8-247.8-255.8S969.2-3,936.2,72.4h0Z"/>
        </g>
      </g>
    </g>
  </g>
</svg>